<?xml version="1.0" encoding="UTF-8" standalone="no"?>
<svg width="62px" height="60px" viewBox="0 0 62 60" version="1.1" xmlns="http://www.w3.org/2000/svg" xmlns:xlink="http://www.w3.org/1999/xlink">
    <!-- Generator: Sketch 3.7.2 (28276) - http://www.bohemiancoding.com/sketch -->
    <title>Shape</title>
    <desc>Created with Sketch.</desc>
    <defs></defs>
    <g id="Home" stroke="none" stroke-width="1" fill="none" fill-rule="evenodd">
        <g id="Home--LG-Copy" transform="translate(-453.000000, -1372.000000)" fill="#FFFFFF">
            <g id="Group-40" transform="translate(378.000000, 1349.000000)">
                <path d="M131.688433,28.625 L123.376431,28.625 L123.376431,24.875 C123.376431,23.838125 122.519148,23 121.458572,23 C120.397995,23 119.540712,23.838125 119.540712,24.875 L119.540712,28.625 L108.033557,28.625 L108.033557,24.875 C108.033557,23.838125 107.174356,23 106.115697,23 C105.057039,23 104.197838,23.838125 104.197838,24.875 L104.197838,28.625 L92.6906824,28.625 L92.6906824,24.875 C92.6906824,23.838125 91.8314814,23 90.7728231,23 C89.7141648,23 88.8549638,23.838125 88.8549638,24.875 L88.8549638,28.625 L80.5448796,28.625 C77.7198729,28.625 75.4299489,30.861875 75.4299489,33.62375 L75.4299489,77.999375 C75.4299489,80.76125 77.7198729,83 80.5448796,83 L131.688433,83 C134.51344,83 136.801446,80.76125 136.801446,77.999375 L136.801446,33.62375 C136.801446,30.861875 134.51344,28.625 131.688433,28.625 Z M132.965727,77.999375 C132.965727,78.689375 132.392287,79.25 131.688433,79.25 L80.5448796,79.25 C79.8391074,79.25 79.2656674,78.689375 79.2656674,77.999375 L79.2656674,33.62375 C79.2656674,32.935625 79.8391074,32.375 80.5448796,32.375 L88.8549638,32.375 L88.8549638,36.125 C88.8549638,37.161875 89.7141648,38 90.7728231,38 C91.8314814,38 92.6906824,37.161875 92.6906824,36.125 L92.6906824,32.375 L104.197838,32.375 L104.197838,36.125 C104.197838,37.161875 105.057039,38 106.115697,38 C107.174356,38 108.033557,37.161875 108.033557,36.125 L108.033557,32.375 L119.540712,32.375 L119.540712,36.125 C119.540712,37.161875 120.397995,38 121.458572,38 C122.519148,38 123.376431,37.161875 123.376431,36.125 L123.376431,32.375 L131.688433,32.375 C132.392287,32.375 132.965727,32.935625 132.965727,33.62375 L132.965727,77.999375 Z M116.34428,45.8571429 L125.111637,45.8571429 L125.111637,51.5714286 L116.34428,51.5714286 L116.34428,45.8571429 Z M116.34428,54.4285714 L125.111637,54.4285714 L125.111637,60.1428571 L116.34428,60.1428571 L116.34428,54.4285714 Z M116.34428,63 L125.111637,63 L125.111637,68.7142857 L116.34428,68.7142857 L116.34428,63 Z M101.732019,45.8571429 L110.499376,45.8571429 L110.499376,51.5714286 L101.732019,51.5714286 L101.732019,45.8571429 Z M101.732019,54.4285714 L110.499376,54.4285714 L110.499376,60.1428571 L101.732019,60.1428571 L101.732019,54.4285714 Z M101.732019,63 L110.499376,63 L110.499376,68.7142857 L101.732019,68.7142857 L101.732019,63 Z M87.6420781,63 L96.4094348,63 L96.4094348,68.7142857 L87.6420781,68.7142857 L87.6420781,63 Z M87.6420781,54.4285714 L96.4094348,54.4285714 L96.4094348,60.1428571 L87.6420781,60.1428571 L87.6420781,54.4285714 Z M87.6420781,45.8571429 L96.4094348,45.8571429 L96.4094348,51.5714286 L87.6420781,51.5714286 L87.6420781,45.8571429 Z" id="Shape"></path>
            </g>
        </g>
    </g>
</svg>