<?xml version="1.0" encoding="UTF-8" standalone="no"?>
<svg width="15px" height="15px" viewBox="0 0 15 15" version="1.1" xmlns="http://www.w3.org/2000/svg" xmlns:xlink="http://www.w3.org/1999/xlink">
    <!-- Generator: Sketch 3.7.2 (28276) - http://www.bohemiancoding.com/sketch -->
    <title>Fill 1</title>
    <desc>Created with Sketch.</desc>
    <defs></defs>
    <g id="Academias" stroke="none" stroke-width="1" fill="none" fill-rule="evenodd">
        <g id="Academias---FICHA-LG" transform="translate(-745.000000, -1175.000000)" fill="#2476D6">
            <g id="Group-3" transform="translate(135.000000, 375.000000)">
                <path d="M617.967757,807.426136 L617.967757,803.175542 C617.967757,802.921187 617.74614,802.716025 617.49176,802.716025 C617.25386,802.716025 617.040458,802.921187 617.040458,803.175542 L617.040458,807.49176 C617.040458,807.5 617.056914,807.53291 617.056914,807.557433 C617.040458,807.705162 617.081609,807.828244 617.179996,807.926803 L619.633622,810.380258 C619.797806,810.544441 620.101355,810.544441 620.265415,810.380258 C620.454097,810.191551 620.441689,809.917749 620.265415,809.740225 L617.967757,807.426136 Z M623.211273,810.807036 C622.622199,811.817272 621.815188,812.618717 620.798796,813.211273 C619.78856,813.800346 618.681654,814.097421 617.491956,814.097421 C616.597593,814.097421 615.744183,813.92517 614.931727,813.572255 C614.119296,813.219513 613.417832,812.755778 612.83104,812.169157 C612.244247,811.582364 611.777201,810.874058 611.427965,810.060229 C611.079759,809.249367 610.911015,808.38632 610.911015,807.491785 C610.911015,806.301916 611.203357,805.200625 611.78912,804.193184 C612.376967,803.182066 613.18415,802.379762 614.193356,801.788923 C615.202391,801.198109 616.302112,800.902603 617.491785,800.902603 C618.681654,800.902603 619.788364,801.19985 620.798625,801.788923 C621.815016,802.381504 622.620287,803.183782 623.211101,804.19316 C623.801916,805.202366 624.097249,806.301916 624.097249,807.49176 C624.097249,808.681654 623.803853,809.790449 623.211273,810.807036 M624.409185,804.578813 C623.617918,802.73405 622.273307,801.392407 620.413143,800.599054 C619.483417,800.202538 618.509378,800 617.491785,800 C616.474363,800 615.507509,800.200625 614.578813,800.599054 C612.73405,801.390298 611.38348,802.731083 610.590815,804.578813 C610.193611,805.504517 610,806.474339 610,807.49176 C610,808.509378 610.193611,809.487243 610.590815,810.413143 C611.38348,812.260874 612.734222,813.609702 614.578813,814.401142 C615.507681,814.799571 616.474339,815 617.491785,815 C618.509231,815 619.483417,814.797462 620.412996,814.401142 C622.27316,813.607765 623.617771,812.257735 624.40921,810.413143 C624.807615,809.484276 625.00824,808.509378 625.00824,807.49176 C625.00824,806.474339 624.807787,805.507656 624.409185,804.578813" id="Fill-1"></path>
            </g>
        </g>
    </g>
</svg>