<?xml version="1.0" encoding="UTF-8" standalone="no"?>
<svg width="59px" height="60px" viewBox="0 0 59 60" version="1.1" xmlns="http://www.w3.org/2000/svg" xmlns:xlink="http://www.w3.org/1999/xlink">
    <!-- Generator: Sketch 3.7.2 (28276) - http://www.bohemiancoding.com/sketch -->
    <title>Shape</title>
    <desc>Created with Sketch.</desc>
    <defs></defs>
    <g id="Home" stroke="none" stroke-width="1" fill="none" fill-rule="evenodd">
        <g id="Home--LG-Copy" transform="translate(-210.000000, -1373.000000)" fill="#FFFFFF">
            <g id="Group-41" transform="translate(137.000000, 1353.000000)">
                <g id="user-outline-copy" transform="translate(73.000000, 20.000000)">
                    <g id="Capa_1">
                        <g id="user">
                            <path d="M42.3021193,36.6129125 C47.2732746,32.8581347 50.4770918,27.0472733 50.4770918,20.5072279 C50.4770918,9.18162781 40.9023389,0 29.0918163,0 C17.2812938,0 7.7065409,9.18162781 7.7065409,20.5072279 C7.7065409,27.0471821 10.9104532,32.8581347 15.8815134,36.6129125 C6.96771772,40.9696909 0.694043136,49.5753929 0,59.6574234 L3.89405737,59.6574234 C4.64447962,50.2167794 11.0445081,42.3047048 19.8533416,38.9805267 C22.6529025,40.2705933 25.7790439,41.0146381 29.0918163,41.0146381 C32.4065854,41.0146381 35.5307302,40.2706845 38.330196,38.9805267 C47.1390295,42.3047048 53.539058,50.2167794 54.2894802,59.6574234 L58.1835376,59.6574234 C57.491491,49.5753929 51.2158199,40.9696909 42.3021193,36.6129125 L42.3021193,36.6129125 Z M29.0918163,37.2860264 C19.4275984,37.2860264 11.5947037,29.7747386 11.5947037,20.5072279 C11.5947037,11.2398084 19.4275984,3.72861176 29.0918163,3.72861176 C38.7560343,3.72861176 46.588929,11.2398084 46.588929,20.5072279 C46.588834,29.7747386 38.7560343,37.2860264 29.0918163,37.2860264 L29.0918163,37.2860264 Z" id="Shape"></path>
                        </g>
                    </g>
                </g>
            </g>
        </g>
    </g>
</svg>