<?xml version="1.0" encoding="UTF-8" standalone="no"?>
<svg width="61px" height="60px" viewBox="0 0 61 60" version="1.1" xmlns="http://www.w3.org/2000/svg" xmlns:xlink="http://www.w3.org/1999/xlink">
    <!-- Generator: Sketch 3.7.2 (28276) - http://www.bohemiancoding.com/sketch -->
    <title>Fill 1</title>
    <desc>Created with Sketch.</desc>
    <defs></defs>
    <g id="Home" stroke="none" stroke-width="1" fill="none" fill-rule="evenodd">
        <g id="Home--LG-Copy" transform="translate(-691.000000, -1372.000000)" fill="#FFFFFF">
            <g id="Group-39" transform="translate(620.000000, 1349.000000)">
                <g id="clock" transform="translate(70.603517, 23.000000)">
                    <g id="Capa_1">
                        <g id="Group">
                            <path d="M32.2675106,29.7045437 L32.2675106,12.7021698 C32.2675106,11.6847485 31.3810435,10.8641019 30.3635241,10.8641019 C29.4119232,10.8641019 28.5583173,11.6847485 28.5583173,12.7021698 L28.5583173,29.9670407 C28.5583173,30 28.6241377,30.1316409 28.6241377,30.229734 C28.5583173,30.8206466 28.7229174,31.3129758 29.1164668,31.7072118 L38.9309729,41.5210312 C39.587706,42.1777643 40.801902,42.1777643 41.4581446,41.5210312 C42.2128727,40.766205 42.1632376,39.6709958 41.4581446,38.9609001 L32.2675106,29.7045437 Z M53.2415748,43.2281449 C50.8852811,47.2690889 47.6572343,50.4748686 43.5916689,52.8450914 C39.5507249,55.2013851 35.1230979,56.3896845 30.3643088,56.3896845 C26.7868545,56.3896845 23.3732157,55.7006788 20.1233922,54.2890214 C16.8736669,52.8780507 14.0678127,51.0231107 11.7206417,48.6766264 C9.37347069,46.3294554 7.50528816,43.4962332 6.10834474,40.2409166 C4.71552123,36.9974692 4.04054281,33.5452798 4.04054281,29.9671388 C4.04054281,25.207663 5.20991031,20.8024994 7.55296139,16.772738 C9.90435039,12.7282626 13.1330838,9.51904967 17.169908,7.15569332 C21.2060454,4.79243506 25.6049311,3.61041356 30.3636221,3.61041356 C35.1230979,3.61041356 39.5499401,4.79939967 43.5909823,7.15569332 C47.6565477,9.52601428 50.8776298,12.7351291 53.2408881,16.7726399 C55.6041464,20.809464 56.7854812,25.207663 56.7854812,29.9670407 C56.7854812,34.7266146 55.6118957,39.1617947 53.2415748,43.2281449 M58.0332251,18.3152515 C54.868154,10.9362003 49.489711,5.56962646 42.0490573,2.39621753 C38.3301528,0.810150671 34.4339941,0 30.3636221,0 C26.2939368,0 22.4265194,0.802499411 18.7117348,2.39621753 C11.3326836,5.56119046 5.93040391,10.924331 2.75974159,18.3152515 C1.17092812,22.0180687 0.396483328,25.8973554 0.396483328,29.9670407 C0.396483328,34.0375108 1.17092812,37.948972 2.75974159,41.652574 C5.93040391,49.0434945 11.3333702,54.4388095 18.7117348,57.6045672 C22.4272061,59.1982853 26.2938387,60 30.3636221,60 C34.4334056,60 38.3301528,59.1898493 42.0484687,57.6045672 C49.4891224,54.4310602 54.8675655,49.0309386 58.0333232,41.652574 C59.6269432,37.9371027 60.4294426,34.0375108 60.4294426,29.9670407 C60.4294426,25.8973554 59.6276298,22.0306247 58.0332251,18.3152515" id="Fill-1"></path>
                        </g>
                    </g>
                </g>
            </g>
        </g>
    </g>
</svg>