<?xml version="1.0" encoding="UTF-8" standalone="no"?>
<svg width="83px" height="61px" viewBox="0 0 83 61" version="1.1" xmlns="http://www.w3.org/2000/svg" xmlns:xlink="http://www.w3.org/1999/xlink">
    <!-- Generator: Sketch 3.7.2 (28276) - http://www.bohemiancoding.com/sketch -->
    <title>Shape</title>
    <desc>Created with Sketch.</desc>
    <defs></defs>
    <g id="Home" stroke="none" stroke-width="1" fill="none" fill-rule="evenodd">
        <g id="Home--LG-Copy" transform="translate(-1169.000000, -1376.000000)" fill="#FFFFFF">
            <g id="Group-38" transform="translate(1104.000000, 1349.000000)">
                <g id="reading" transform="translate(65.000000, 27.000000)">
                    <g id="Capa_1">
                        <g id="Group">
                            <path d="M80.255876,0.256429319 L41.312473,0.256429319 L2.36906992,0.256429319 C1.06071157,0.256429319 0,1.31787536 0,2.62784585 L0,57.8850128 C0,59.1949833 1.06071157,60.2564293 2.36906992,60.2564293 L41.312473,60.2564293 L80.255876,60.2564293 C81.5642343,60.2564293 82.6249459,59.1949833 82.6249459,57.8850128 L82.6249459,2.62784585 C82.6249459,1.31819155 81.5642343,0.256429319 80.255876,0.256429319 Z M4.73813983,4.99926237 L38.943403,4.99926237 L38.943403,55.5135963 L4.73813983,55.5135963 L4.73813983,4.99926237 Z M77.8868061,55.5135963 L43.6815429,55.5135963 L43.6815429,4.99926237 L77.8868061,4.99926237 L77.8868061,55.5135963 Z M29.6756015,40.9603711 L14.0059413,40.9603711 C12.697583,40.9603711 11.6368714,42.0218172 11.6368714,43.3317877 C11.6368714,44.6417582 12.697583,45.7032042 14.0059413,45.7032042 L29.6752857,45.7032042 C30.983644,45.7032042 32.0443556,44.6417582 32.0443556,43.3317877 C32.0443556,42.0218172 30.9839599,40.9603711 29.6756015,40.9603711 Z M29.6756015,27.8850128 L14.0059413,27.8850128 C12.697583,27.8850128 11.6368714,28.9464588 11.6368714,30.2564293 C11.6368714,31.5663998 12.697583,32.6278458 14.0059413,32.6278458 L29.6752857,32.6278458 C30.983644,32.6278458 32.0443556,31.5663998 32.0443556,30.2564293 C32.0443556,28.9464588 30.9839599,27.8850128 29.6756015,27.8850128 Z M29.6756015,14.8099706 L14.0059413,14.8099706 C12.697583,14.8099706 11.6368714,15.8714167 11.6368714,17.1813872 C11.6368714,18.4913576 12.697583,19.5528037 14.0059413,19.5528037 L29.6752857,19.5528037 C30.983644,19.5528037 32.0443556,18.4913576 32.0443556,17.1813872 C32.0443556,15.8714167 30.9839599,14.8099706 29.6756015,14.8099706 Z M52.9493444,45.7032042 L68.6186887,45.7032042 C69.927047,45.7032042 70.9877586,44.6417582 70.9877586,43.3317877 C70.9877586,42.0218172 69.927047,40.9603711 68.6186887,40.9603711 L52.9493444,40.9603711 C51.640986,40.9603711 50.5802745,42.0218172 50.5802745,43.3317877 C50.5802745,44.6417582 51.640986,45.7032042 52.9493444,45.7032042 Z M52.9493444,32.6278458 L68.6186887,32.6278458 C69.927047,32.6278458 70.9877586,31.5663998 70.9877586,30.2564293 C70.9877586,28.9464588 69.927047,27.8850128 68.6186887,27.8850128 L52.9493444,27.8850128 C51.640986,27.8850128 50.5802745,28.9464588 50.5802745,30.2564293 C50.5802745,31.5663998 51.640986,32.6278458 52.9493444,32.6278458 Z M52.9493444,19.5528037 L68.6186887,19.5528037 C69.927047,19.5528037 70.9877586,18.4913576 70.9877586,17.1813872 C70.9877586,15.8714167 69.927047,14.8099706 68.6186887,14.8099706 L52.9493444,14.8099706 C51.640986,14.8099706 50.5802745,15.8714167 50.5802745,17.1813872 C50.5802745,18.4913576 51.640986,19.5528037 52.9493444,19.5528037 Z" id="Shape"></path>
                        </g>
                    </g>
                </g>
            </g>
        </g>
    </g>
</svg>