<?xml version="1.0" encoding="UTF-8" standalone="no"?>
<svg width="56px" height="60px" viewBox="0 0 56 60" version="1.1" xmlns="http://www.w3.org/2000/svg" xmlns:xlink="http://www.w3.org/1999/xlink">
    <!-- Generator: Sketch 3.7.2 (28276) - http://www.bohemiancoding.com/sketch -->
    <title>Shape</title>
    <desc>Created with Sketch.</desc>
    <defs></defs>
    <g id="Home" stroke="none" stroke-width="1" fill="none" fill-rule="evenodd">
        <g id="Home--LG-Copy" transform="translate(-935.000000, -1370.000000)" fill="#FFFFFF">
            <g id="Group-24" transform="translate(862.000000, 1349.000000)">
                <g id="pen" transform="translate(73.560125, 21.000000)">
                    <g id="Capa_1">
                        <path d="M53.6998675,9.46524874 L46.3603069,1.47842899 C45.449923,0.487760384 44.3153783,0 43.1107833,0 C41.9061883,0 40.6875832,0.495383167 39.8611698,1.47842899 L34.9448093,6.82835219 C33.9643751,6.50067025 32.8298303,6.74450158 32.0734672,7.48371607 L29.9584883,9.78521017 C29.1250698,10.6921259 28.9780541,12.0867043 29.4261961,13.2451718 L5.67071703,39.0956904 C5.59366175,39.179541 5.51660647,39.2633916 5.51660647,39.3395217 C5.51660647,39.3395217 5.51660647,39.3395217 5.51660647,39.4233723 C5.43955119,39.5072229 5.43955119,39.5910735 5.3624959,39.6672036 L5.3624959,39.6672036 L1.13253807,53.667031 L1.13253807,53.667031 L0.677301211,55.14546 L0.222064348,56.623889 C0.222064348,56.7077396 0.222064348,56.7915902 0.145009065,56.7915902 C-0.00910150022,57.6146553 0.145009065,58.2700192 0.36908008,58.6815517 C0.446135363,58.849253 0.523190645,59.0092337 0.593151094,59.0930843 C1.04838796,59.6723181 1.72769583,60 2.48405899,60 L2.48405899,60 L2.70813001,60 L3.00925631,60 L3.00925631,60 L3.00925631,60 C3.08631159,60 3.16336687,60 3.16336687,59.9161494 L5.05427477,59.2607855 L18.6688117,54.4062455 L18.6688117,54.4062455 C18.8928827,54.3223949 19.0469932,54.2385442 19.2011038,54.0785635 L43.0266332,28.1519149 C43.3277594,28.3196161 43.6288857,28.3196161 44.0070673,28.3196161 C44.7634305,28.3196161 45.4427384,27.9919342 45.9750305,27.4127004 L48.0900094,25.1112063 C48.9234279,24.2042906 49.0704436,22.9696929 48.692262,21.9027965 L53.6086226,16.5528733 C55.5137201,14.6551912 55.5137201,11.4390609 53.6998675,9.46524874 L53.6998675,9.46524874 Z M18.37487,50.7863031 L14.5230039,46.5871269 L37.1369333,21.895076 L40.9958044,26.0942521 L18.37487,50.7863031 L18.37487,50.7863031 Z M35.1689701,19.7535626 L12.5550408,44.4456136 L8.69616967,40.1702096 L31.310099,15.5620092 L35.1689701,19.7535626 L35.1689701,19.7535626 Z M5.97184333,55.7246937 L4.08093543,53.667031 L7.33054889,42.9671846 L11.5676016,47.5778933 L11.5676016,47.5778933 L11.5676016,47.5778933 L15.8046542,52.188602 L5.97184333,55.7246937 L5.97184333,55.7246937 Z M44.5464543,24.8596545 C44.469399,24.7758039 44.469399,24.6919532 44.3923437,24.6919532 L32.6687148,11.8505935 C32.5146042,11.6828922 32.4446437,11.6067621 32.2905332,11.5229115 L33.9573701,9.63294997 L34.1114806,9.80065119 L34.1114806,9.80065119 L45.9892202,22.7258616 C46.0662755,22.8097122 46.1433307,22.8935628 46.2132912,22.8935628 L44.5464543,24.8596545 L44.5464543,24.8596545 Z M51.7319043,14.48749 L46.9695645,19.6698097 L37.059878,8.80988486 L41.8222178,3.62756516 C42.5015256,2.88835066 43.7131257,2.88835066 44.3924335,3.62756516 L51.7319941,11.6067621 C52.4112122,12.4298272 52.4112122,13.6644249 51.7319043,14.48749 L51.7319043,14.48749 Z" id="Shape"></path>
                    </g>
                </g>
            </g>
        </g>
    </g>
</svg>