<?xml version="1.0" encoding="UTF-8" standalone="no"?>
<svg width="47px" height="63px" viewBox="0 0 47 63" version="1.1" xmlns="http://www.w3.org/2000/svg" xmlns:xlink="http://www.w3.org/1999/xlink">
    <!-- Generator: Sketch 3.6.1 (26313) - http://www.bohemiancoding.com/sketch -->
    <title>Group 45</title>
    <desc>Created with Sketch.</desc>
    <defs>
        <path id="path-1" d="M23.3618484,62.405191 L46.7236709,62.405191 L46.7236709,0.0570141666 L23.3618484,0.0570141666 L2.58446667e-05,0.0570141666 L2.58446667e-05,62.405191 L23.3618484,62.405191 L23.3618484,62.405191 Z"></path>
        <path id="path-3" d="M0,62.5115412 L46.7236709,62.5115412 L46.7236709,0.163364374 L0,0.163364374 L0,62.5115412 Z"></path>
    </defs>
    <g id="Home" stroke="none" stroke-width="1" fill="none" fill-rule="evenodd">
        <g id="Home--LG" transform="translate(-697.000000, -41.000000)">
            <g id="Group-26" transform="translate(697.000000, 41.000000)">
                <g id="Group-45">
                    <g id="Group-25">
                        <path d="M1.50015376,17.2798667 L44.6536422,17.2798667 L44.6536422,3.63828798 L1.50015376,3.63828798 L1.50015376,17.2798667 Z" id="Fill-1" fill="#3B77FF"></path>
                        <path d="M35.9691623,56.9388067 L22.7632456,58.1137232 L7.7435815,56.9388067 C2.96034026,56.9388067 0,55.4776757 0,49.5874098 L0,17.4590284 L45.5470536,17.4590284 L45.5470536,49.5874098 C45.5470536,55.4776757 40.7524035,56.9388067 35.9691623,56.9388067 L35.9691623,56.9388067 Z" id="Fill-2" fill="#66C200"></path>
                        <g id="Group-6" transform="translate(0.000000, 0.106350)">
                            <mask id="mask-2" fill="white">
                                <use xlink:href="#path-1"></use>
                            </mask>
                            <g id="Clip-5"></g>
                            <path d="M42.6048343,54.1280082 C41.0376145,55.6824203 38.3562316,55.9750059 35.0548356,54.9525082 C29.3964071,53.200262 25.1316515,56.3321204 23.3536686,58.007422 C21.9465564,56.6786162 18.9807531,54.4357867 14.992923,54.4357867 C13.9502205,54.4357867 12.8374789,54.5891859 11.6645193,54.9525082 C8.36699992,55.9736989 5.69052757,55.682747 4.12770135,54.1325824 C2.87449409,52.8895429 2.61139551,51.1524895 2.61139551,49.9143509 C2.61139551,47.4998255 2.60196221,31.2779065 2.59459649,18.2785131 L44.1328994,18.2785131 C44.1283766,31.2780698 44.1224324,47.5001522 44.1224324,49.9143509 C44.1224324,51.1500391 43.8592046,52.8839885 42.6048343,54.1280082 L42.6048343,54.1280082 Z M23.3528932,4.06058489 C25.3871259,4.77138328 35.0015956,7.77320366 44.1375515,4.5823707 C44.1366469,6.96307973 44.1352255,11.8661347 44.1335456,16.6448694 L2.5935627,16.6448694 C2.59084901,11.8662981 2.58852299,6.96340646 2.58710154,4.58253406 C11.7211191,7.77336702 21.3208573,4.77187337 23.3528932,4.06058489 L23.3528932,4.06058489 Z M45.0033474,0.819272337 C35.2915726,5.12098304 23.8413572,0.841163164 23.7269946,0.797381511 L23.3523763,0.653784226 L22.9768535,0.798034969 C22.8628786,0.841653257 11.4549192,5.13062154 1.72091796,0.819272337 L5.16893347e-05,0.0570141666 L0.00147314529,2.36224885 C0.00160236856,2.79777828 0.0269301293,45.9620766 0.0269301293,49.9143509 C0.0269301293,52.6895849 0.91676156,55.1005164 2.53244009,56.7032842 C4.08932204,58.2474043 7.04414131,59.7472526 12.2796221,58.1260246 C18.2382362,56.2796804 22.2842168,61.0922315 22.4501395,61.2938232 L23.3512133,62.405191 L24.2535794,61.2957835 C24.2946724,61.2451406 28.4316261,56.2644875 34.4397328,58.1260246 C39.6815455,59.7493764 42.6403707,58.2456073 44.2002248,56.6985467 C45.8165494,55.0951253 46.7068977,52.6858275 46.7068977,49.9143509 C46.7068977,45.9619133 46.722663,2.79745155 46.7227922,2.36175876 L46.7236968,0.0573408954 L45.0033474,0.819272337 Z" id="Fill-4" fill="#00009D" mask="url(#mask-2)"></path>
                        </g>
                        <mask id="mask-4" fill="white">
                            <use xlink:href="#path-3"></use>
                        </mask>
                        <g id="Clip-18"></g>
                        <path d="M40.4746628,24.9193893 L40.4746628,21.9788306 C40.4746628,21.9788306 26.7855174,18.9448274 21.5434434,35.2113449 C17.2790731,48.4438592 6.23047752,45.9933936 6.23047752,45.9933936 L6.23047752,48.9339523 C6.23047752,48.9339523 18.6105904,51.2893399 23.3525701,37.008353 C28.1984454,22.4145233 40.4746628,24.9193893 40.4746628,24.9193893" id="Fill-22" fill="#FFFFFF" mask="url(#mask-4)"></path>
                    </g>
                    <text id="D" font-family="Arial-BoldMT, Arial" font-size="16.453159" font-weight="bold" fill="#FFFFFF">
                        <tspan x="5.47713864" y="37.6230937">D</tspan>
                    </text>
                    <text id="M" font-family="Arial-BoldMT, Arial" font-size="16.453159" font-weight="bold" fill="#FFFFFF">
                        <tspan x="27.2407445" y="52.4309368">M</tspan>
                    </text>
                </g>
            </g>
        </g>
    </g>
</svg>